<svg width="168" height="58" viewBox="0 0 168 58" fill="none" xmlns="http://www.w3.org/2000/svg">
<path d="M0.396511 18.5884V17.7954H12.0143V18.5884H10.0714L15.5036 30.8406L18.0413 24.5361L15.3846 18.5884H13.8779V17.7954H24.7423V18.5884H22.8787L28.192 30.682L32.395 18.5884H29.2229V17.7954H36.0429V18.5884H33.3466L25.9318 40H24.9802L25.1388 39.5638L24.9406 40L18.5567 25.6463L12.8073 40H11.8557L2.29977 18.5884H0.396511ZM66.3342 18.5884H64.3516V39.207H66.3342V40H56.4214V39.207H58.404V20.0555L50.553 40.3965H49.6411L40.8385 19.5004V39.207H44.0106V40H37.6664V39.207H40.0455V18.5884H37.6268V17.7954H46.469L52.6546 32.6645L58.404 17.7954H66.3342V18.5884ZM88.3477 26.6376H87.5547C87.5547 24.5228 86.8806 22.5667 85.5325 20.7692C84.1843 18.9717 82.2546 18.0729 79.7434 18.0729C78.3424 18.0729 77.1793 18.8924 76.2541 20.5313C75.3553 22.1702 74.906 24.9722 74.906 28.9373C74.906 32.9024 75.3553 35.7045 76.2541 37.3434C77.1793 38.9823 78.6067 39.8017 80.5364 39.8017C82.4926 39.8017 84.1315 39.1938 85.4532 37.9778C86.8013 36.7618 87.634 35.0436 87.9512 32.8231H88.7442C88.3741 35.4401 87.4489 37.3962 85.9686 38.6915C84.5148 39.9603 82.7701 40.5948 80.7347 40.5948C76.796 40.5948 73.7693 39.6564 71.6546 37.7795C69.5663 35.8763 68.5221 32.9157 68.5221 28.8977C68.5221 24.8533 69.5398 21.9059 71.5753 20.0555C73.6371 18.2051 76.3598 17.2799 79.7434 17.2799C81.5674 17.2799 83.3384 17.7689 85.0567 18.747C85.6118 19.0906 86.0612 19.2625 86.4048 19.2625C86.7749 19.2625 87.0656 19.1038 87.2771 18.7866C87.4886 18.443 87.5943 18.1126 87.5943 17.7954H88.3477V26.6376Z" fill="#0F1549"/>
<path d="M135.07 17.1271L166.989 17.1271M138.196 22.5767L167 22.9897M133.124 28.0261H166.989" stroke="black" stroke-width="1.55701"/>
<path d="M99.8432 13.2346C99.8432 9.47246 102.893 6.42267 106.655 6.42267H159.204C162.966 6.42267 166.016 9.47247 166.016 13.2346V38.9252C166.016 42.6873 162.966 45.7371 159.204 45.7371H106.655C102.893 45.7371 99.8432 42.6873 99.8432 38.9252V13.2346Z" stroke="#0F1549" stroke-width="1.94626"/>
<path d="M113.481 21.2097V14.493C113.481 14.2207 113.701 14 113.974 14H120.879C121.151 14 121.372 14.2207 121.372 14.493V20.9639C121.372 21.2362 121.593 21.4569 121.865 21.4569H128.853C129.125 21.4569 129.346 21.6776 129.346 21.9498L129.346 28.8305C129.346 29.1027 129.125 29.3235 128.853 29.3235H122.112C121.839 29.3235 121.619 29.5442 121.619 29.8164L121.619 36.5332C121.619 36.8054 121.398 37.0261 121.126 37.0261H114.451C114.185 37.0261 113.967 36.8149 113.959 36.549L113.742 29.8006C113.734 29.5347 113.516 29.3234 113.25 29.3234L106.493 29.3235C106.221 29.3235 106 29.1027 106 28.8305V22.1957C106 21.9234 106.221 21.7027 106.493 21.7027H112.988C113.26 21.7027 113.481 21.482 113.481 21.2097Z" fill="#FF5B4F"/>
</svg>
